<svg width="103" height="63" class="header_logo" xmlns="http://www.w3.org/2000/svg">

    <style>
svg > path.kr_chars {
  fill: url(#grad1);
  stroke: black;
  stroke-width: 2px;
}
    </style>

    <defs>

        <linearGradient id="grad1" x1="0%" y1="0%" x2="100%" y2="0%">

            <stop offset="0%" style="stop-color:rgb(0, 156, 255); stop-opacity:1;" />
            <stop offset="20%" style="stop-color:rgb(0, 156, 255); stop-opacity:1;" />
            <stop offset="80%" style="stop-color:rgb(0, 161, 0); stop-opacity:1;" />
            <stop offset="100%" style="stop-color:rgb(0, 161, 0); stop-opacity:1;" />

        </linearGradient>

    </defs>

    <path

        class="kr_chars"

        d="
        m1 9
        q0 -8 8 -8
        q8 0 8 8
        l0 10
        l10 -10
        q8 -8 16 -8
        l38 0
        q15 0 15 15
        q0 15 -15 15
        l17 17
        q8 8 0 13
        q-5 2 -10 -2
        l-18 -18
        l0 13
        q0 8 -8 8
        q-8 0 -8 -8
        l0 -36
        q0 -2 -2 -2
        l-8 0
        q-2 0 -3 1
        l-14 14
        l18 18
        q8 8 0 12
        q-5 2 -10 -2
        l-18 -18
        l0 13
        q0 8 -8 8
        q-8 0 -8 -8
        l0 -45
        z
        "
    />

</svg>
